# xmcd
#
# Track frame offsets: 
#        150
#        12740
#        24935
#        40595
#        54805
#        65375
#        78142
#        89885
#        105397
#        119182
#        132520
#        145725
#        158802
#        171437
#        186272
#
# Disc length: 2698 seconds
#
# Revision: 0
# Processed by: cddbd v1.5.2PL0 Copyright (c) Steve Scherf et al.
# Submitted via: ExactAudioCopy v0.95b4
#
DISCID=ca0a880f
DTITLE=Peão Carreiro and Sampaio - Inédito
DYEAR=1999
DGENRE=Country
TTITLE0=O amor não morre
TTITLE1=Viagra ne mim
TTITLE2=Virginiano
TTITLE3=Chapeuzinho vermelho
TTITLE4=Larga do meu pé
TTITLE5=Sem roupa
TTITLE6=Glope baixo
TTITLE7=Garanhão da zona
TTITLE8=Mulher nota mil
TTITLE9=Filho de Deus
TTITLE10=Toque de amor
TTITLE11=Coitado do meu vizinho
TTITLE12=Dançando com a chiquinha
TTITLE13=Boia fria
TTITLE14=De corpo e alma
EXTD=
EXTT0=
EXTT1=
EXTT2=
EXTT3=
EXTT4=
EXTT5=
EXTT6=
EXTT7=
EXTT8=
EXTT9=
EXTT10=
EXTT11=
EXTT12=
EXTT13=
EXTT14=
PLAYORDER=
